# xmcd CD database file
#
# Track frame offsets:
#	150
#	23251
#	47677
#	73356
#	91800
#	113001
#	138660
#	162395
#	181719
#	202378
#	227146
#	251130
#
# Disc length: 3822 seconds
#
# Revision: 4
# Processed by: cddbd v1.5.2PL0 Copyright (c) Steve Scherf et al.
# Submitted via: CDex 1.51
#
DISCID=a60eec0c
DTITLE=Verschiedene - Du bist Herr (Band 5, Vol. 2, CD 1)
DYEAR=2006
DGENRE=Contemporary Christian
TTITLE0=Stärke meine Hände
TTITLE1=Herr, ich möchte nah bei dir sein
TTITLE2=Herr der Ehre
TTITLE3=Preist Adonai
TTITLE4=Heilig ist der Herr
TTITLE5=Agnus Dei
TTITLE6=The Power Of Your Love
TTITLE7=Welch Liebe
TTITLE8=Wie tief muss Gottes sein
TTITLE9=Du hast den Weg ans Kreuz gewählt
TTITLE10=In Christus
TTITLE11=I Give You My Heart
EXTD=www.gerth.de, Art.-Nr. 946353 YEAR: 2006
EXTT0=
EXTT1=
EXTT2=
EXTT3=
EXTT4=
EXTT5=
EXTT6=
EXTT7=
EXTT8=
EXTT9=
EXTT10=
EXTT11=
PLAYORDER=
